<svg id="Layer_1" data-name="Layer 1" xmlns="http://www.w3.org/2000/svg" xmlns:xlink="http://www.w3.org/1999/xlink" viewBox="0 0 299.71 183.23"><defs><style>.cls-1{fill:none;}.cls-2{font-size:9px;letter-spacing:-0.05em;}.cls-10,.cls-2,.cls-3{fill:#58595b;}.cls-2,.cls-3{font-family:Poppins-Regular, Poppins;}.cls-3{font-size:10.03px;letter-spacing:-0.05em;}.cls-4{letter-spacing:-0.05em;}.cls-5{clip-path:url(#clip-path);}.cls-6{fill:#5dcaec;}.cls-7{fill:#19b6e7;}.cls-8{fill:#009fda;}.cls-9{fill:#fff;}</style><clipPath id="clip-path"><rect class="cls-1" y="42.76" width="299.71" height="140.46"/></clipPath></defs><text class="cls-2" transform="translate(117.14 32.72)">informativni izračun pri nakupu na obroke</text><text class="cls-3" transform="translate(12.24 95.44)">Hipna odobritev. Brez skritih stroškov. <tspan class="cls-4"><tspan x="0" y="12.03">Možnost kartičnega plačila.</tspan></tspan></text><g class="cls-5"><polygon class="cls-6" points="60.66 168.19 -137.7 37.4 -137.7 146.44 60.66 277.24 419.47 145.54 419.47 36.5 60.66 168.19"/><polygon class="cls-7" points="60.66 193.36 -137.7 62.56 -137.7 168.47 60.66 299.26 419.47 167.57 419.47 134.35 419.47 61.66 60.66 193.36"/><polygon class="cls-8" points="60.66 221.43 -137.7 90.63 -137.7 199.16 60.66 329.96 419.47 198.26 419.47 163.34 419.47 89.73 60.66 221.43"/></g><polygon class="cls-6" points="16.6 14.58 12.5 11.86 12.5 17.2 16.6 19.92 28.51 15.65 28.51 10.3 16.6 14.58"/><polygon class="cls-7" points="16.6 19.92 12.5 17.2 12.5 22.39 16.6 25.11 28.51 20.84 28.51 19.21 28.51 15.65 16.6 19.92"/><polygon class="cls-8" points="16.6 25.11 12.5 22.39 12.5 27.71 16.6 30.43 28.51 26.16 28.51 24.45 28.51 20.84 16.6 25.11"/><path class="cls-8" d="M37.37,16.71a4.26,4.26,0,0,0-2.51-.77,2.17,2.17,0,0,0-1.12.24.7.7,0,0,0-.4.64c0,.59.52.89,1.57.92.47,0,.89.05,1.27.1a6.44,6.44,0,0,1,1.23.3,3.67,3.67,0,0,1,1.08.57,2.78,2.78,0,0,1,.73,1,3.38,3.38,0,0,1,.3,1.47,3.24,3.24,0,0,1-1.14,2.51,5.07,5.07,0,0,1-3.5,1.05,7.55,7.55,0,0,1-5-1.8l1.33-2.19a5.81,5.81,0,0,0,3.69,1.33,2.16,2.16,0,0,0,1.15-.23.74.74,0,0,0,.44-.67c0-.58-.61-.9-1.81-.94A8.42,8.42,0,0,1,33.18,20a5.72,5.72,0,0,1-1.42-.55,2.94,2.94,0,0,1-1.49-2.61,2.85,2.85,0,0,1,1.33-2.55,5.8,5.8,0,0,1,3.24-.86,6,6,0,0,1,4.06,1.37Z"/><path class="cls-8" d="M58,13.71h2.89v10.6H58.13L58,23a3,3,0,0,1-1.42,1.15,5,5,0,0,1-1.84.41,5.27,5.27,0,0,1-3.94-1.47A5.41,5.41,0,0,1,49.23,19a5.22,5.22,0,0,1,5.56-5.54,4.49,4.49,0,0,1,1.88.39,2.71,2.71,0,0,1,1.25,1.07ZM53.12,17a2.71,2.71,0,0,0-.8,2.05,2.67,2.67,0,0,0,.8,2,3,3,0,0,0,4-.06,2.63,2.63,0,0,0,.78-1.87A3.07,3.07,0,0,0,57.18,17a2.6,2.6,0,0,0-2.07-.84A2.73,2.73,0,0,0,53.12,17Z"/><path class="cls-8" d="M67.69,21.09l1.24-3.5,1.53-3.88h3.47L69.38,24.37H66L61.45,13.71h3.47l1.53,3.88Z"/><path class="cls-8" d="M82.09,24.31v-5.6c0-1.65-.73-2.47-2.18-2.47a2.15,2.15,0,0,0-1.73.75,2.73,2.73,0,0,0-.68,1.85v5.47h-3V13.71h2.79l.1,1.35a4,4,0,0,1,3.43-1.61q4.43,0,4.42,5.24v5.62Z"/><path class="cls-8" d="M87.55,23A5.32,5.32,0,0,1,86,19a5.35,5.35,0,0,1,1.59-4A6.42,6.42,0,0,1,96,15a5.32,5.32,0,0,1,1.6,4A5.33,5.33,0,0,1,96,23a6.6,6.6,0,0,1-8.45,0Zm6.22-2a3.13,3.13,0,0,0,0-3.91,2.77,2.77,0,0,0-4,0,3.14,3.14,0,0,0,0,3.89,2.42,2.42,0,0,0,2,.83A2.46,2.46,0,0,0,93.77,21Z"/><path class="cls-8" d="M49,16.27H45.78v8.44H42.71V16.27H39.5V13.71H49Z"/><polygon class="cls-9" points="26.42 13.41 20.89 15.39 20.89 18.38 23.28 17.55 23.27 21.73 23.27 21.73 23.27 23.93 26.42 25.05 26.41 21.85 26.41 21.73 26.42 13.41"/><path class="cls-10" d="M30.41,31.86a2,2,0,0,1,0-2.69,2.17,2.17,0,0,1,2.84,0,2,2,0,0,1,0,2.69,2.23,2.23,0,0,1-2.86,0Zm2.1-.68a1,1,0,0,0,.23-.66,1,1,0,0,0-.23-.66.82.82,0,0,0-.67-.28.81.81,0,0,0-.67.28,1,1,0,0,0-.23.66.94.94,0,0,0,.23.65.79.79,0,0,0,.67.28A.83.83,0,0,0,32.51,31.18Z"/><path class="cls-10" d="M35.41,27.24v1.92a1.36,1.36,0,0,1,1.12-.51,1.75,1.75,0,0,1,1.29.5,1.86,1.86,0,0,1,.49,1.36,1.89,1.89,0,0,1-.49,1.35,1.67,1.67,0,0,1-1.27.51,1.42,1.42,0,0,1-1.19-.53l-.07.46h-.93V27.24Zm.3,2.6a.84.84,0,0,0-.29.67.82.82,0,0,0,.29.69,1,1,0,0,0,.68.23.84.84,0,0,0,.64-.26,1,1,0,0,0,.23-.66.92.92,0,0,0-.24-.66.83.83,0,0,0-.63-.26A1,1,0,0,0,35.71,29.84Z"/><path class="cls-10" d="M39.86,28.73l.08.39a1.12,1.12,0,0,1,1-.48,1.26,1.26,0,0,1,.87.33l-.43.82a1,1,0,0,0-.57-.18.89.89,0,0,0-.6.22.79.79,0,0,0-.24.61V32.3h-1V28.73Z"/><path class="cls-10" d="M42.29,31.86a2,2,0,0,1,0-2.69,1.94,1.94,0,0,1,1.41-.53,2,2,0,0,1,1.43.53,1.8,1.8,0,0,1,.54,1.35,1.78,1.78,0,0,1-.54,1.34,2.21,2.21,0,0,1-2.85,0Zm2.1-.68a1,1,0,0,0,.23-.66,1,1,0,0,0-.23-.66.83.83,0,0,0-.68-.28.8.8,0,0,0-.66.28,1,1,0,0,0-.23.66.94.94,0,0,0,.23.65.79.79,0,0,0,.66.28A.84.84,0,0,0,44.39,31.18Z"/><path class="cls-10" d="M47.28,27.24v2.89l1.06-1.4h1.23v.06l-1.31,1.62,1.51,1.81v.08H48.52l-1.24-1.57V32.3h-1V27.24Z"/><path class="cls-10" d="M50.24,27.34a.59.59,0,0,1,.41-.16.61.61,0,0,1,.41.16.55.55,0,0,1,.18.43.56.56,0,0,1-.18.44.66.66,0,0,1-.41.16.64.64,0,0,1-.41-.16.57.57,0,0,1-.19-.44A.56.56,0,0,1,50.24,27.34Zm-.11,1.38V32.3h1V28.72Z"/><path class="cls-10" d="M53.77,33.88V28.73h.93l.07.46A1.4,1.4,0,0,1,56,28.66a1.69,1.69,0,0,1,1.28.51,2.1,2.1,0,0,1,0,2.7,1.72,1.72,0,0,1-1.29.51,1.35,1.35,0,0,1-1.12-.51v2Zm2.66-2.7a1,1,0,0,0,0-1.32.82.82,0,0,0-.64-.26,1.07,1.07,0,0,0-.68.22.83.83,0,0,0-.28.7.84.84,0,0,0,.29.67,1,1,0,0,0,.67.25A.84.84,0,0,0,56.43,31.18Z"/><path class="cls-10" d="M59.27,28.73l.08.39a1.09,1.09,0,0,1,.95-.48,1.28,1.28,0,0,1,.88.33l-.44.82a.94.94,0,0,0-.57-.18.88.88,0,0,0-.59.22.79.79,0,0,0-.24.61V32.3h-1V28.73Z"/><path class="cls-10" d="M61.63,27.34a.61.61,0,0,1,.41-.16.59.59,0,0,1,.41.16.56.56,0,0,1,.19.43.57.57,0,0,1-.19.44.64.64,0,0,1-.41.16.66.66,0,0,1-.41-.16.56.56,0,0,1-.18-.44A.55.55,0,0,1,61.63,27.34Zm-.11,1.38V32.3h1V28.72Z"/><path class="cls-10" d="M66.13,28.73l.08.39a1.12,1.12,0,0,1,1-.48A1.26,1.26,0,0,1,68,29l-.43.82a1,1,0,0,0-.57-.18.89.89,0,0,0-.6.22.79.79,0,0,0-.24.61V32.3h-1V28.73Z"/><path class="cls-10" d="M68.56,31.86a2,2,0,0,1,0-2.69A1.94,1.94,0,0,1,70,28.64a2,2,0,0,1,1.43.53A1.8,1.8,0,0,1,72,30.52a1.78,1.78,0,0,1-.54,1.34,2.21,2.21,0,0,1-2.85,0Zm2.1-.68a1,1,0,0,0,.23-.66,1,1,0,0,0-.23-.66.83.83,0,0,0-.68-.28.79.79,0,0,0-.66.28,1.07,1.07,0,0,0,0,1.31.82.82,0,0,0,.67.28A.84.84,0,0,0,70.66,31.18Z"/><path class="cls-10" d="M73.55,27.24v2.89l1.06-1.4h1.23v.06l-1.31,1.62L76,32.22v.08H74.79l-1.24-1.57V32.3h-1V27.24Z"/><path class="cls-10" d="M76.51,27.34a.59.59,0,0,1,.41-.16.61.61,0,0,1,.41.16.55.55,0,0,1,.18.43.56.56,0,0,1-.18.44.66.66,0,0,1-.41.16.64.64,0,0,1-.41-.16.57.57,0,0,1-.19-.44A.56.56,0,0,1,76.51,27.34Zm-.11,1.38V32.3h1V28.72Z"/></svg>